<?xml version="1.0" encoding="iso-8859-1"?>
<!-- Uploaded to: SVG Repo, www.svgrepo.com, Generator: SVG Repo Mixer Tools -->
<svg version="1.1" id="Layer_1" xmlns="http://www.w3.org/2000/svg" xmlns:xlink="http://www.w3.org/1999/xlink" 
	 viewBox="0 0 512 512" xml:space="preserve">
<rect x="407.925" y="80.16" style="fill:#2F5E88;" width="56.269" height="351.657"/>
<rect x="47.806" y="80.16" style="fill:#367596;" width="382.627" height="351.657"/>
<g>
	<path style="fill:#88ACB5;" d="M464.194,0h-33.761v102.668h33.761c9.284,0,16.881-7.596,16.881-16.881V16.881
		C481.075,7.596,473.478,0,464.194,0z"/>
	<path style="fill:#88ACB5;" d="M464.194,136.429h-33.761v102.668h33.761c9.284,0,16.881-7.596,16.881-16.881V153.31
		C481.075,144.025,473.478,136.429,464.194,136.429z"/>
</g>
<path style="fill:#A7CBCF;" d="M447.314,153.31v68.907c0,9.284-7.596,16.881-16.881,16.881H47.806
	c-9.284,0-16.881-7.596-16.881-16.881V153.31c0-9.284,7.596-16.881,16.881-16.881h382.627
	C439.717,136.429,447.314,144.025,447.314,153.31z"/>
<g>
	<path style="fill:#88ACB5;" d="M464.194,272.881h-33.761v102.668h33.761c9.284,0,16.881-7.596,16.881-16.881v-68.907
		C481.075,280.477,473.478,272.881,464.194,272.881z"/>
	<path style="fill:#88ACB5;" d="M464.194,409.332h-33.761V512h33.761c9.284,0,16.881-7.596,16.881-16.881v-68.907
		C481.075,416.928,473.478,409.332,464.194,409.332z"/>
</g>
<g>
	<path style="fill:#A7CBCF;" d="M447.314,289.761v68.907c0,9.284-7.596,16.881-16.881,16.881H47.806
		c-9.284,0-16.881-7.596-16.881-16.881v-68.907c0-9.284,7.596-16.881,16.881-16.881h382.627
		C439.717,272.881,447.314,280.477,447.314,289.761z"/>
	<path style="fill:#A7CBCF;" d="M447.314,426.213v68.907c0,9.284-7.596,16.881-16.881,16.881H47.806
		c-9.284,0-16.881-7.596-16.881-16.881v-68.907c0-9.284,7.596-16.881,16.881-16.881h382.627
		C439.717,409.332,447.314,416.928,447.314,426.213z"/>
	<path style="fill:#A7CBCF;" d="M447.314,16.881v68.907c0,9.284-7.596,16.881-16.881,16.881H47.806
		c-9.284,0-16.881-7.596-16.881-16.881V16.881C30.925,7.596,38.522,0,47.806,0h382.627C439.717,0,447.314,7.596,447.314,16.881z"/>
</g>
<g>
	<path style="fill:#E5FAFC;" d="M256,42.202H115.328c-4.661,0-8.44-3.779-8.44-8.44s3.779-8.44,8.44-8.44H256
		c4.661,0,8.44,3.779,8.44,8.44S260.661,42.202,256,42.202z"/>
	<path style="fill:#E5FAFC;" d="M81.567,42.202H64.686c-4.661,0-8.44-3.779-8.44-8.44s3.779-8.44,8.44-8.44h16.881
		c4.661,0,8.44,3.779,8.44,8.44S86.228,42.202,81.567,42.202z"/>
	<path style="fill:#E5FAFC;" d="M256,178.631H115.328c-4.661,0-8.44-3.779-8.44-8.44s3.779-8.44,8.44-8.44H256
		c4.661,0,8.44,3.779,8.44,8.44S260.661,178.631,256,178.631z"/>
	<path style="fill:#E5FAFC;" d="M81.567,178.631H64.686c-4.661,0-8.44-3.779-8.44-8.44s3.779-8.44,8.44-8.44h16.881
		c4.661,0,8.44,3.779,8.44,8.44S86.228,178.631,81.567,178.631z"/>
	<path style="fill:#E5FAFC;" d="M256,315.082H115.328c-4.661,0-8.44-3.779-8.44-8.44s3.779-8.44,8.44-8.44H256
		c4.661,0,8.44,3.779,8.44,8.44S260.661,315.082,256,315.082z"/>
	<path style="fill:#E5FAFC;" d="M81.567,315.082H64.686c-4.661,0-8.44-3.779-8.44-8.44s3.779-8.44,8.44-8.44h16.881
		c4.661,0,8.44,3.779,8.44,8.44S86.228,315.082,81.567,315.082z"/>
	<path style="fill:#E5FAFC;" d="M256,451.534H115.328c-4.661,0-8.44-3.779-8.44-8.44c0-4.661,3.779-8.44,8.44-8.44H256
		c4.661,0,8.44,3.779,8.44,8.44C264.44,447.755,260.661,451.534,256,451.534z"/>
	<path style="fill:#E5FAFC;" d="M81.567,451.534H64.686c-4.661,0-8.44-3.779-8.44-8.44c0-4.661,3.779-8.44,8.44-8.44h16.881
		c4.661,0,8.44,3.779,8.44,8.44C90.007,447.755,86.228,451.534,81.567,451.534z"/>
</g>
</svg>