<?xml version="1.0" encoding="iso-8859-1"?>
<!-- Uploaded to: SVG Repo, www.svgrepo.com, Generator: SVG Repo Mixer Tools -->
<svg version="1.1" id="Layer_1" xmlns="http://www.w3.org/2000/svg" xmlns:xlink="http://www.w3.org/1999/xlink" 
	 viewBox="0 0 512 512" xml:space="preserve">
<polygon style="fill:#88ACB5;" points="478.242,489.495 512,489.495 512,90.022 455.736,56.264 "/>
<polygon style="fill:#A7CBCF;" points="0,90.022 0,489.495 478.242,489.495 478.242,56.264 "/>
<polygon style="fill:#367596;" points="478.242,22.505 455.736,56.264 478.242,90.022 512,90.022 512,22.505 "/>
<rect y="22.505" style="fill:#5195AF;" width="478.242" height="67.516"/>
<polygon style="fill:#D0FBFD;" points="444.484,123.78 421.978,279.154 444.484,455.736 478.242,455.736 478.242,123.78 "/>
<g>
	<rect x="33.758" y="123.78" style="fill:#FFFFFF;" width="410.725" height="331.956"/>
	<circle style="fill:#FFFFFF;" cx="436.044" cy="56.264" r="8.44"/>
	<circle style="fill:#FFFFFF;" cx="402.286" cy="56.264" r="8.44"/>
	<circle style="fill:#FFFFFF;" cx="469.802" cy="56.264" r="8.44"/>
</g>
<path style="fill:#25BBCC;" d="M335.919,199.034h-14.437v181.449h14.437c25.153-22.183,41.049-54.63,41.049-90.724
	C376.968,253.664,361.071,221.217,335.919,199.034z"/>
<path style="fill:#50D1DD;" d="M321.482,209.957h-54.064v159.601h54.064c13.517-21.314,21.727-49.25,21.727-79.801
	C343.21,259.208,334.999,231.271,321.482,209.957z"/>
<g>
	<path style="fill:#78E3EC;" d="M321.482,369.559l-65.48,41.166c30.606,0,58.589-11.432,79.917-30.242
		C331.396,376.493,326.566,372.845,321.482,369.559z"/>
	<path style="fill:#78E3EC;" d="M256.002,168.792c0.002,0,65.481,41.166,65.481,41.166c5.084-3.287,9.914-6.934,14.437-10.924
		C314.591,180.224,286.609,168.792,256.002,168.792z"/>
</g>
<g>
	<path style="fill:#A0F6FA;" d="M256.005,168.792l33.919,55.635c11.289-3.304,21.892-8.22,31.558-14.47
		C305.488,184.737,282.065,168.793,256.005,168.792z"/>
	<path style="fill:#A0F6FA;" d="M289.924,355.089l-33.921,55.635c26.063,0,49.486-15.945,65.481-41.166
		C311.816,363.311,301.212,358.393,289.924,355.089z"/>
	<path style="fill:#A0F6FA;" d="M222.082,205.452l-46.005-6.414c-25.151,22.181-41.043,54.629-41.043,90.72
		s15.891,68.538,41.043,90.72l46.005-6.414l22.059-84.307L222.082,205.452z"/>
</g>
<path style="fill:#78E3EC;" d="M289.927,224.427h-67.845c-4.051,18.852-6.404,41.281-6.404,65.331
	c0,24.05,2.353,46.479,6.404,65.331h67.845c4.051-18.852,6.395-41.281,6.395-65.331
	C296.322,265.708,293.979,243.279,289.927,224.427z"/>
<g>
	<path style="fill:#F0FEFF;" d="M176.077,199.039c13.122,11.575,28.776,20.361,46.005,25.388L256,168.792
		C225.394,168.792,197.405,180.225,176.077,199.039z"/>
	<path style="fill:#F0FEFF;" d="M222.082,355.089c-17.229,5.029-32.884,13.814-46.005,25.388
		c21.328,18.813,49.316,30.246,79.923,30.246L222.082,355.089z"/>
</g>
<g>
	<path style="fill:#D0FBFD;" d="M256,168.792c14.222,0,26.746,22.192,33.927,55.635c-10.769,3.16-22.153,4.848-33.927,4.848
		c-11.774,0-23.159-1.689-33.918-4.848C229.265,190.984,241.788,168.792,256,168.792z"/>
	<path style="fill:#D0FBFD;" d="M289.927,355.089c-7.183,33.443-19.706,55.635-33.927,55.635c-14.212,0-26.735-22.192-33.918-55.635
		c10.759-3.16,22.144-4.848,33.918-4.848C267.774,350.242,279.159,351.93,289.927,355.089z"/>
</g>
<path style="fill:#2F5E88;" d="M256.001,160.353c-71.355,0-129.407,58.051-129.407,129.405s58.051,129.405,129.407,129.405
	s129.405-58.051,129.405-129.405S327.356,160.353,256.001,160.353z M368.211,281.319h-63.548
	c-0.403-17.693-2.072-35.223-4.974-51.224c12.863-4.625,24.986-11.291,35.892-19.816
	C354.064,228.784,366.152,253.677,368.211,281.319z M276.494,372.585c-7.308,21.92-15.606,29.699-20.492,29.699
	c-4.886,0-13.185-7.778-20.492-29.699c-1.194-3.583-2.292-7.38-3.308-11.33c7.768-1.686,15.739-2.575,23.8-2.575
	c8.061,0,16.033,0.889,23.802,2.575C278.786,365.206,277.687,369.002,276.494,372.585z M296.068,366.082
	c9.365,3.578,18.254,8.407,26.418,14.401c-11.535,8.477-24.737,14.809-39.017,18.404
	C288.576,390.08,292.782,378.844,296.068,366.082z M228.533,398.887c-14.28-3.595-27.483-9.928-39.018-18.405
	c8.164-5.994,17.054-10.824,26.418-14.402C219.22,378.844,223.427,390.08,228.533,398.887z M256,341.802
	c-9.265,0-18.432,1.003-27.361,2.938c-2.524-14.275-4.025-30.065-4.41-46.542h63.545c-0.385,16.477-1.886,32.267-4.41,46.542
	C274.433,342.805,265.267,341.802,256,341.802z M224.229,281.319c0.385-16.477,1.886-32.267,4.41-46.542
	c8.929,1.935,18.096,2.938,27.361,2.938c9.267,0,18.433-1.003,27.363-2.938c2.524,14.276,4.025,30.065,4.41,46.542H224.229z
	 M235.509,206.931c7.308-21.92,15.606-29.699,20.492-29.699c4.886,0,13.185,7.778,20.492,29.699
	c1.194,3.583,2.292,7.38,3.308,11.329c-7.769,1.686-15.74,2.575-23.802,2.575s-16.032-0.889-23.8-2.575
	C233.217,214.311,234.315,210.514,235.509,206.931z M215.933,213.435c-9.365-3.578-18.255-8.407-26.418-14.402
	c11.536-8.477,24.738-14.809,39.018-18.405C223.427,189.437,219.22,200.673,215.933,213.435z M283.469,180.629
	c14.28,3.595,27.481,9.928,39.017,18.404c-8.164,5.994-17.054,10.824-26.418,14.401
	C292.782,200.673,288.576,189.437,283.469,180.629z M176.419,210.279c10.906,8.525,23.029,15.191,35.893,19.816
	c-2.902,16-4.571,33.531-4.974,51.224h-63.548C145.849,253.677,157.937,228.785,176.419,210.279z M143.79,298.198h63.548
	c0.403,17.693,2.072,35.223,4.974,51.224c-12.864,4.625-24.987,11.291-35.893,19.816
	C157.937,350.731,145.849,325.839,143.79,298.198z M335.582,369.238c-10.906-8.525-23.029-15.191-35.892-19.816
	c2.902-16,4.571-33.531,4.974-51.224h63.548C366.152,325.839,354.064,350.732,335.582,369.238z"/>
</svg>