<?xml version="1.0" encoding="iso-8859-1"?>
<!-- Uploaded to: SVG Repo, www.svgrepo.com, Generator: SVG Repo Mixer Tools -->
<svg version="1.1" id="Layer_1" xmlns="http://www.w3.org/2000/svg" xmlns:xlink="http://www.w3.org/1999/xlink" 
	 viewBox="0 0 512 512" xml:space="preserve">
<path style="fill:#A1A1A1;" d="M445.226,212.375h-40.986l0,0H84.508c-6.705,0-12.141,5.435-12.141,12.141v66.027
	c0,85.49,69.304,154.794,154.794,154.794h22.287c63.298,0,117.711-37.998,141.702-92.422h54.077
	c36.819,0,66.774-29.955,66.774-66.774v-6.992C512,242.33,482.045,212.375,445.226,212.375z M475.578,286.14
	c0,16.736-13.616,30.352-30.352,30.352h-43.163c1.424-8.439,2.177-17.105,2.177-25.949v-41.746h40.986
	c16.736,0,30.352,13.616,30.352,30.352V286.14z"/>
<path style="fill:#D6D6D6;" d="M84.508,212.374h153.796l0.001,232.961H227.16c-85.49,0-154.794-69.304-154.794-154.794v-66.028
	C72.367,217.811,77.803,212.374,84.508,212.374z"/>
<path style="fill:#8E572E;" d="M266.508,301.206l25.216-18.913c4.769-3.577,11.326-3.577,16.096,0l25.216,18.913
	c3.378,2.533,5.365,6.509,5.365,10.73v58.212c0,7.408-6.005,13.413-13.413,13.413h-50.434c-7.408,0-13.413-6.005-13.413-13.413
	v-58.212C261.143,307.715,263.131,303.74,266.508,301.206z"/>
<g>
	<rect x="281.566" y="212.377" style="fill:#625F69;" width="36.422" height="77.02"/>
	<path style="fill:#625F69;" d="M458.397,422.782H18.211C8.154,422.782,0,430.935,0,440.993c0,10.057,8.154,18.211,18.211,18.211
		h49.784l6.351,11.967c12.299,23.179,36.393,37.67,62.633,37.67h101.326H339.63c26.24,0,50.334-14.491,62.632-37.67l6.35-11.967
		h49.784c10.057,0,18.211-8.154,18.211-18.211C476.608,430.935,468.454,422.782,458.397,422.782z"/>
</g>
<path style="fill:#827E8C;" d="M238.304,459.204v-36.422H18.211C8.154,422.782,0,430.935,0,440.993
	c0,10.057,8.154,18.211,18.211,18.211h49.784l6.351,11.967c12.299,23.179,36.393,37.67,62.633,37.67h101.326L238.304,459.204z"/>
<path style="fill:#F3A938;" d="M215.274,157.044c-4.533,0-9.031-1.938-12.16-5.692c-12.595-15.114-28.601-51.51,0.968-81.078
	c4.487-4.487,10.005-12.065,6.131-26.009c-2.46-8.859-7.435-15.579-7.484-15.643c-5.327-6.925-4.031-16.855,2.893-22.182
	s16.855-4.031,22.182,2.894c12.325,16.022,27.904,54.055-1.352,83.312c-7.054,7.054-9.023,14.814-6.197,24.422
	c2.326,7.907,7.117,13.976,7.164,14.032c5.592,6.711,4.686,16.685-2.026,22.278C222.434,155.842,218.843,157.044,215.274,157.044z"
	/>
<path style="fill:#DE9833;" d="M298.885,157.044c-4.533,0-9.031-1.938-12.16-5.692c-12.595-15.114-28.601-51.51,0.968-81.078
	c4.487-4.487,10.005-12.065,6.131-26.009c-2.46-8.859-7.435-15.579-7.483-15.643c-5.327-6.925-4.031-16.855,2.893-22.182
	c6.925-5.327,16.856-4.031,22.182,2.894c12.325,16.022,27.904,54.055-1.352,83.312c-7.054,7.054-9.023,14.814-6.197,24.422
	c2.325,7.907,7.117,13.976,7.163,14.032c5.592,6.711,4.686,16.685-2.026,22.278C306.047,155.842,302.454,157.044,298.885,157.044z"
	/>
</svg>